Calcio.2011.Highlights.01.720p.HDTV.x264.AC3-MohD

The highlights of all Calcio matches round 01 captured from Canal+ sport HD.
No commentator. only stadium sound.

Milan-Lecce
Roma-Cessena
Bari-juventus
Pologna-Inter
Palermo-Cagliary

And more ...........

Release Details:

Format                           : Matroska
File size                        : 2.09 GiB
Duration                         : 40mn 34s
Overall bit rate                 : 7 383 Kbps
Encoded date                     : UTC 2010-09-08 20:13:33
Writing application              : mkvmerge v2.4.0 (\'Fumbling Towards Ecstasy\') built on Oct 11 2008 20:13:15
Writing library                  : libebml v0.7.7 + libmatroska v0.8.1

Video
ID                               : 1
Format                           : AVC
Format/Info                      : Advanced Video Codec
Format profile                   : Main@L3.1
Format settings, CABAC           : Yes
Format settings, ReFrames        : 1 frame
Muxing mode                      : Container profile=Unknown@3.1
Codec ID                         : V_MPEG4/ISO/AVC
Duration                         : 40mn 34s
Bit rate                         : 6 852 Kbps
Nominal bit rate                 : 7 000 Kbps
Width                            : 1 280 pixels
Height                           : 720 pixels
Display aspect ratio             : 16:9
Frame rate                       : 25.000 fps
Resolution                       : 24 bits
Colorimetry                      : 4:2:0
Scan type                        : Progressive
Bits/(Pixel*Frame)               : 0.297
Stream size                      : 1.94 GiB (93%)
Writing library                  : x264 core 65 r999kMod cc51047
Encoding settings                : cabac=1 / ref=1 / deblock=1:0:0 / analyse=0x1:0x111 / me=hex / subme=6 / psy_rd=1.0:0.0 / mixed_ref=0 / me_range=16 / chroma_me=1 / trellis=0 / 8x8dct=0 / cqm=0 / deadzone=21,11 / chroma_qp_offset=-2 / threads=4 / thread_queue=4 / nr=0 / decimate=1 / mbaff=0 / bframes=0 / keyint=250 / keyint_min=25 / scenecut=40(pre) / rc=abr / bitrate=7000 / ratetol=1.0 / qcomp=0.60 / qpmin=10 / qpmax=51 / qpstep=4 / ip_ratio=1.40 / aq=1:1.00

Audio
ID                               : 2
Format                           : AC-3
Format/Info                      : Audio Coding 3
Codec ID                         : A_AC3
Duration                         : 40mn 34s
Bit rate mode                    : Constant
Bit rate                         : 384 Kbps
Channel(s)                       : 2 channels
Channel positions                : L R
Sampling rate                    : 48.0 KHz
Stream size                      : 111 MiB (5%)

